<svg width="13" height="12" viewBox="0 0 13 12" fill="none" xmlns="http://www.w3.org/2000/svg">
<path d="M11.8833 11.55C10.8333 11.525 9.80833 11.525 8.75833 11.55C8.53333 11.55 8.48333 11.5 8.48333 11.275C8.48333 9.42497 8.48333 7.54997 8.48333 5.69997C8.48333 5.27497 8.45833 4.84997 8.33333 4.44997C7.95833 3.14997 6.45833 2.67497 5.38333 3.54997C4.80833 3.99997 4.58333 4.62497 4.58333 5.37497C4.58333 7.12497 4.58333 8.87497 4.58333 10.625C4.58333 10.85 4.55833 11.075 4.58333 11.325C4.60833 11.525 4.50833 11.575 4.33333 11.55C3.25833 11.55 2.20833 11.55 1.13333 11.55C0.933331 11.55 0.883331 11.5 0.883331 11.3C0.908331 9.72497 0.908331 8.14997 0.908331 6.54997C0.908331 4.59997 0.908331 2.64997 0.883331 0.724971C0.883331 0.499971 0.933331 0.449971 1.13333 0.449971C2.20833 0.449971 3.25833 0.449971 4.33333 0.449971C4.53333 0.449971 4.58333 0.499971 4.58333 0.699971C4.58333 1.09997 4.58333 1.49997 4.58333 1.97497C4.65833 1.89997 4.68333 1.87497 4.70833 1.84997C5.68333 0.424971 7.05833 0.0249708 8.68333 0.274971C10.5583 0.574971 11.7583 1.87497 12.0583 3.87497C12.1333 4.34997 12.1583 4.82497 12.1583 5.29997C12.1583 7.29997 12.1583 9.27497 12.1583 11.275C12.1583 11.475 12.1083 11.55 11.8833 11.55Z" fill="white"/>
</svg>
