<svg width="20" height="17" viewBox="0 0 20 17" fill="none" xmlns="http://www.w3.org/2000/svg">
<path d="M17.8417 4.54175C17.8417 4.71675 17.8417 4.89175 17.8417 5.04175C17.8417 10.2167 13.8917 16.1917 6.69166 16.1917C4.46666 16.1917 2.41666 15.5417 0.666656 14.4417C0.966657 14.4667 1.29166 14.4917 1.59166 14.4917C3.41666 14.4917 5.11666 13.8667 6.46666 12.8167C4.74166 12.7917 3.29166 11.6417 2.81666 10.0917C3.06666 10.1417 3.29166 10.1667 3.56666 10.1667C3.91666 10.1667 4.26666 10.1167 4.59166 10.0167C2.79166 9.66675 1.44166 8.09175 1.44166 6.19175C1.44166 6.16675 1.44166 6.16675 1.44166 6.14175C1.96666 6.44175 2.56666 6.61675 3.21666 6.64175C2.16666 5.94175 1.46666 4.74175 1.46666 3.36675C1.46666 2.64175 1.66666 1.96675 1.99166 1.39175C3.91666 3.76675 6.81666 5.31675 10.0667 5.49175C9.99166 5.21675 9.96666 4.89175 9.96666 4.59175C9.96666 2.41675 11.7167 0.666748 13.8917 0.666748C15.0167 0.666748 16.0417 1.14175 16.7417 1.89175C17.6417 1.71675 18.4667 1.39175 19.2417 0.941748C18.9417 1.86675 18.3167 2.61675 17.5167 3.11675C18.3167 3.01675 19.0667 2.81675 19.7667 2.49175C19.2667 3.29175 18.6167 3.99175 17.8417 4.54175Z" fill="white"/>
</svg>
