<svg width="7" height="6" viewBox="0 0 7 6" fill="none" xmlns="http://www.w3.org/2000/svg">
<path d="M5.2275 0.727498C5.33315 0.626914 5.47374 0.571308 5.61961 0.572411C5.76548 0.573515 5.90521 0.631243 6.00933 0.733413C6.11345 0.835584 6.1738 0.974206 6.17766 1.12003C6.18151 1.26585 6.12857 1.40747 6.03 1.515L3.0375 5.2575C2.98604 5.31292 2.92393 5.3574 2.8549 5.38827C2.78586 5.41915 2.7113 5.43578 2.63568 5.43718C2.56007 5.43858 2.48495 5.42472 2.41481 5.39642C2.34468 5.36813 2.28097 5.32598 2.2275 5.2725L0.242996 3.288C0.187731 3.2365 0.143404 3.1744 0.11266 3.1054C0.0819165 3.0364 0.065385 2.96192 0.0640524 2.88639C0.0627198 2.81086 0.0766135 2.73584 0.104904 2.6658C0.133195 2.59576 0.175303 2.53213 0.228717 2.47872C0.282132 2.42531 0.345757 2.3832 0.415798 2.35491C0.485839 2.32661 0.560861 2.31272 0.636388 2.31405C0.711915 2.31539 0.7864 2.33192 0.8554 2.36266C0.924399 2.39341 0.9865 2.43773 1.038 2.493L2.6085 4.06275L5.21325 0.743998C5.21794 0.738223 5.22294 0.732715 5.22825 0.727498H5.2275Z" fill="#1E1B33"/>
</svg>
